<?xml version="1.0" encoding="UTF-8"?>
<!-- Generator: visioncortex VTracer 0.6.12 -->
<svg viewBox="0 0 1942 809" version="1.1" xmlns="http://www.w3.org/2000/svg" width="1942" height="809">
<path d="M0 0 C5.327 4.592 8.605 10.436 9.382 17.446 C9.384 18.053 9.384 18.053 9.392 21.126 C9.398 21.808 9.404 22.49 9.41 23.193 C9.426 25.46 9.421 27.727 9.417 29.994 C9.424 31.628 9.433 33.261 9.443 34.895 C9.466 39.321 9.471 43.747 9.473 48.173 C9.479 52.819 9.502 57.465 9.524 62.111 C9.562 70.919 9.587 79.728 9.605 88.537 C9.638 104.281 9.696 120.026 9.759 135.77 C9.78 141.286 9.796 146.803 9.806 152.319 C9.813 155.769 9.824 159.219 9.835 162.669 C9.84 164.255 9.843 165.841 9.844 167.426 C9.85 175.931 10.098 184.353 10.772 192.837 C11.096 197.339 11.155 201.823 11.161 206.335 C11.166 207.267 11.171 208.199 11.176 209.159 C11.191 212.184 11.198 215.209 11.203 218.234 C11.205 218.757 11.205 218.757 11.212 221.401 C11.227 226.917 11.236 232.433 11.24 237.95 C11.246 243.621 11.27 249.291 11.298 254.962 C11.317 259.353 11.322 263.744 11.324 268.135 C11.327 270.225 11.335 272.316 11.348 274.407 C11.365 277.332 11.363 280.257 11.356 283.183 C11.366 284.032 11.375 284.881 11.384 285.756 C11.322 294.83 9.068 302.913 3.238 309.953 C-5.084 317.563 -15.014 319.479 -25.844 319.273 C-34.272 318.887 -41.248 315.822 -47.34 309.992 C-51.711 304.747 -53.233 299.765 -53 293 C-53.776 293.629 -54.552 294.258 -55.352 294.906 C-73.343 309.261 -93.633 318.819 -117 320 C-117.457 320.026 -117.457 320.026 -119.77 320.16 C-150.419 321.065 -181.442 310.041 -204.066 289.336 C-212.802 281.07 -219.997 272.416 -226 262 C-226.643 260.907 -227.286 259.814 -227.949 258.688 C-242.639 231.666 -244.51 198.279 -236 169 C-233.766 162.475 -230.977 156.215 -228 150 C-227.505 148.952 -227.01 147.904 -226.5 146.824 C-212.989 120.301 -188.072 101.704 -160.262 92.332 C-156.211 91.065 -152.142 89.927 -148 89 C-147.205 88.817 -146.41 88.635 -145.591 88.447 C-137.734 86.818 -130.007 86.615 -122 86.625 C-121.319 86.625 -120.639 86.625 -119.938 86.626 C-108.576 86.661 -97.907 87.68 -87 91 C-85.757 91.374 -84.515 91.748 -83.234 92.133 C-72.477 95.711 -62.394 100.662 -53 107 C-53.003 106.446 -53.003 106.446 -53.02 103.644 C-53.081 93.183 -53.126 82.723 -53.155 72.263 C-53.171 66.885 -53.192 61.508 -53.226 56.131 C-53.259 50.937 -53.277 45.744 -53.285 40.55 C-53.29 38.573 -53.301 36.596 -53.317 34.619 C-53.339 31.84 -53.342 29.062 -53.341 26.283 C-53.351 25.474 -53.362 24.665 -53.373 23.831 C-53.323 14.521 -50.597 7.667 -44.168 0.945 C-31.677 -10.263 -13.313 -8.777 0 0 Z M-162 155 C-162.362 155.356 -162.362 155.356 -164.191 157.156 C-176.933 170.502 -181.387 189.149 -181.215 207.18 C-180.212 225.015 -173.414 242.791 -160.211 255.16 C-145.041 267.784 -128.133 271.064 -109 270 C-92.374 267.931 -77.44 257.907 -66.809 245.328 C-53.418 228.091 -51.12 207.269 -53.426 186.09 C-56.728 169.742 -66.297 155.158 -80.039 145.785 C-107.076 129.484 -139.512 132.549 -162 155 Z " fill="#000000" transform="translate(960,246)"/>
<path d="M0 0 C7.443 5.55 11.867 12.306 14.438 21.188 C15.633 31.23 13.906 39.741 7.938 48.125 C1.15 56.443 -6.885 61.743 -17.547 63.559 C-27.46 64.49 -36.855 62.825 -44.918 56.828 C-52.94 49.956 -58.509 42.854 -59.504 32.059 C-59.935 21.17 -56.471 12.886 -49.25 4.812 C-36.522 -8.698 -15.187 -9.913 0 0 Z " fill="#000000" transform="translate(1572.25,248.1875)"/>
<path d="M0 0 C0.726 -0.005 1.451 -0.01 2.199 -0.016 C4.669 0.295 6.218 0.907 8.312 2.25 C17.521 16.876 15.287 35.962 11.633 52.059 C5.729 76.143 -5.641 99.263 -25.125 115.25 C-28.917 116.73 -32.693 117.119 -36.688 116.25 C-40.531 113.686 -42.888 110.814 -45.438 107 C-57.514 90.058 -76.681 81.895 -96.688 78.25 C-122.287 74.467 -148.486 81.625 -169.633 96.293 C-172.065 98.203 -174.381 100.191 -176.688 102.25 C-177.503 102.924 -178.319 103.598 -179.16 104.293 C-197.948 120.235 -210.596 144.645 -212.688 169.25 C-214.115 194.061 -208.354 219.128 -191.59 238.233 C-189.358 240.648 -187.041 242.952 -184.688 245.25 C-183.982 245.976 -183.277 246.701 -182.551 247.449 C-167.163 262.368 -145.86 268.715 -124.868 268.611 C-102.967 268.167 -85.227 258.592 -67.688 246.25 C-50.771 234.358 -34.988 226.534 -13.688 228.25 C-0.985 230.596 10.219 235.968 18.312 246.25 C24.618 255.89 27.385 266.646 25.75 278.125 C24.31 284.463 21.214 289.938 16.312 294.25 C11.456 295.869 7.113 295.94 2.375 294.125 C-0.195 292.552 -2.648 290.899 -5.125 289.188 C-13.749 283.433 -23.244 283.053 -33.359 284.68 C-43.11 287.261 -51.848 292.854 -60 298.625 C-89.846 319.733 -124.981 329.868 -161.44 324.068 C-199.15 317.282 -232.495 296.564 -254.688 265.25 C-267.025 247.151 -275.969 226.102 -278.688 204.25 C-278.742 203.825 -278.742 203.825 -279.02 201.676 C-283.086 164.537 -272.652 127.492 -249.75 98 C-243.259 90.219 -236.595 82.616 -228.688 76.25 C-228.858 75.725 -229.028 75.201 -229.203 74.66 C-232.658 63.616 -236.126 51.863 -236.688 40.25 C-236.739 39.611 -236.791 38.971 -236.844 38.312 C-237.346 27.264 -235.321 13.307 -228.688 4.25 C-224.911 0.751 -221.935 0.622 -216.938 0.781 C-195.355 3.894 -177.011 21.237 -163.688 37.25 C-163.028 38.24 -162.368 39.23 -161.688 40.25 C-156.789 39.2 -151.939 38.059 -147.095 36.779 C-121.668 30.159 -94.681 29.642 -69.811 38.8 C-65.246 40.409 -65.246 40.409 -62.445 39.613 C-60.492 38.098 -59.007 36.537 -57.438 34.625 C-44.324 19.317 -21.58 -0.155 0 0 Z " fill="#000000" transform="translate(417.6875,243.75)"/>
<path d="M0 0 C0.36 0 0.36 0 2.18 0.002 C14.095 0.043 25.416 0.929 36.875 4.375 C37.573 4.584 38.271 4.793 38.99 5.008 C54.197 9.764 68.116 17.622 79.875 28.375 C80.714 29.133 81.553 29.891 82.418 30.672 C103.534 50.708 116.136 80.506 117.211 109.531 C117.699 143.895 107.404 172.22 83.648 197.656 C58.211 222.592 24.644 233.643 -10.473 233.692 C-39.902 233.332 -67.641 223.282 -90.125 204.375 C-91.007 203.657 -91.888 202.939 -92.797 202.199 C-114.802 183.509 -127.403 155.054 -129.854 126.621 C-131.69 98.423 -123.198 69.333 -104.797 47.629 C-103.316 45.979 -101.819 44.342 -100.301 42.727 C-98.72 41.018 -97.216 39.239 -95.762 37.422 C-93.055 34.149 -89.982 31.584 -86.625 29 C-86.012 28.526 -85.399 28.052 -84.767 27.563 C-71.035 17.11 -56.413 10.127 -40 5.062 C-39.226 4.82 -38.452 4.577 -37.654 4.328 C-25.332 0.704 -12.774 -0.037 0 0 Z M-54.125 70.375 C-54.73 70.959 -55.334 71.543 -55.957 72.145 C-68.926 85.661 -71.646 104.938 -71.398 122.742 C-70.818 139.915 -63.222 154.426 -51.125 166.375 C-50.511 167.011 -49.898 167.646 -49.266 168.301 C-37.082 180.041 -20.94 183.941 -4.531 183.861 C14.3 183.316 29.575 174.899 42.406 161.312 C55.659 145.544 59.966 127.578 58.875 107.375 C57.03 89.76 47.645 73.604 34.25 62.223 C6.701 40.791 -30.594 46.267 -54.125 70.375 Z " fill="#000000" transform="translate(587.125,332.625)"/>
<path d="M0 0 C0.722 0 1.443 0 2.187 0.001 C14.145 0.035 25.41 1.068 36.938 4.375 C37.603 4.557 38.268 4.739 38.954 4.926 C66.489 12.602 92.684 30.264 107.25 55.188 C115.895 70.732 120.131 87.011 120.375 104.75 C120.386 105.261 120.386 105.261 120.443 107.85 C120.42 115.315 119.056 120.609 114.262 126.398 C113.722 126.844 113.181 127.29 112.625 127.75 C112.359 127.981 112.359 127.981 111.012 129.148 C106.031 132.094 100.714 132.626 95.035 132.64 C94.377 132.644 93.719 132.649 93.041 132.653 C90.856 132.666 88.672 132.664 86.487 132.662 C84.913 132.668 83.339 132.675 81.765 132.683 C78.386 132.698 75.006 132.706 71.627 132.711 C66.287 132.717 60.947 132.739 55.607 132.763 C43.315 132.816 31.023 132.85 18.731 132.883 C7.449 132.913 -3.832 132.948 -15.114 132.999 C-20.426 133.023 -25.738 133.036 -31.051 133.043 C-34.347 133.049 -37.644 133.063 -40.94 133.079 C-42.473 133.085 -44.006 133.087 -45.538 133.086 C-47.624 133.085 -49.709 133.096 -51.795 133.11 C-52.964 133.113 -54.133 133.116 -55.337 133.119 C-58.062 133.375 -58.062 133.375 -60.062 135.375 C-60.953 144.692 -56.274 153.015 -50.934 160.266 C-39.537 173.709 -22.363 183.057 -4.678 184.58 C17.459 185.456 33.487 179.752 50.734 166.021 C61.561 157.546 73.14 153.988 86.938 155.375 C94.887 157.699 102.445 161.092 106.75 168.5 C109.671 174.13 110.103 179.335 108.344 185.434 C99.814 205.059 76.003 216.902 57.216 224.495 C50.907 226.931 44.516 228.818 37.938 230.375 C37.263 230.539 36.589 230.702 35.895 230.871 C14.904 235.709 -11.217 235.904 -32.062 230.375 C-32.739 230.209 -33.416 230.042 -34.113 229.871 C-64.005 222.482 -89.772 204.457 -105.93 178.008 C-122.553 150.013 -127.015 118.869 -119.559 87.237 C-112.002 57.753 -92.669 32.902 -66.668 17.387 C-57.299 12.072 -47.643 7.59 -37.312 4.5 C-36.677 4.309 -36.041 4.118 -35.386 3.921 C-23.763 0.684 -12.005 -0.033 0 0 Z M-40.062 59.375 C-40.381 59.611 -40.381 59.611 -41.992 60.805 C-50.459 67.465 -55.932 77.174 -59.062 87.375 C-59.191 90.23 -59.191 90.23 -59.062 92.375 C-54.069 95.055 -49.043 94.623 -43.537 94.558 C-43.007 94.556 -43.007 94.556 -40.327 94.544 C-36.83 94.525 -33.333 94.492 -29.836 94.457 C-27.406 94.438 -24.977 94.42 -22.548 94.403 C-17.458 94.363 -12.369 94.316 -7.28 94.263 C-0.749 94.197 5.783 94.153 12.315 94.116 C17.33 94.084 22.345 94.039 27.36 93.99 C29.769 93.968 32.178 93.951 34.587 93.939 C37.948 93.92 41.309 93.882 44.67 93.839 C45.671 93.837 46.672 93.836 47.702 93.834 C48.617 93.819 49.531 93.803 50.472 93.787 C51.267 93.78 52.061 93.773 52.88 93.765 C55.456 93.277 56.369 92.445 57.938 90.375 C58.246 79.809 51.97 68.672 44.918 61.184 C34.371 51.552 21.263 45.282 6.938 44.375 C6.214 44.322 5.491 44.269 4.746 44.215 C-11.804 43.588 -27.148 49.34 -40.062 59.375 Z " fill="#000000" transform="translate(1115.0625,332.625)"/>
<path d="M0 0 C1.622 1.312 3.228 2.642 4.827 3.982 C5.1 4.209 5.1 4.209 6.48 5.356 C15.417 12.892 22.382 21.25 28.827 30.982 C29.485 31.968 30.142 32.954 30.819 33.97 C46.122 58.556 50.42 88.552 44.371 116.687 C40.015 135.082 31.866 150.524 19.827 164.982 C19.119 165.855 18.412 166.727 17.683 167.626 C-1.977 190.787 -33.143 205.382 -63.173 207.982 C-78.295 208.781 -93.458 208.851 -108.173 204.982 C-108.912 204.794 -109.652 204.606 -110.414 204.412 C-140.402 196.551 -167.032 177.675 -183.173 150.982 C-198.344 124.76 -203.616 94.542 -196.173 64.982 C-187.881 34.234 -167.961 8.007 -140.497 -8.147 C-139.4 -8.764 -138.303 -9.382 -137.173 -10.018 C-136.107 -10.625 -135.041 -11.232 -133.942 -11.858 C-127.184 -15.479 -120.43 -18.098 -113.11 -20.331 C-112.32 -20.573 -111.53 -20.816 -110.716 -21.065 C-73.077 -31.945 -30.756 -24.219 0 0 Z M-126.423 47.419 C-139.546 63.648 -142.473 82.663 -141.173 102.982 C-139.31 117.944 -131.736 130.548 -121.173 140.982 C-120.559 141.617 -119.946 142.253 -119.313 142.908 C-107.045 154.731 -90.942 158.491 -74.445 158.404 C-56.476 157.938 -41.824 150.305 -29.017 137.892 C-14.901 122.88 -10.623 105.629 -10.899 85.65 C-11.477 68.452 -19.07 53.957 -31.173 41.982 C-31.763 41.358 -32.354 40.734 -32.962 40.091 C-44.687 28.625 -61.966 23.425 -78.014 23.562 C-97.546 24.293 -113.357 33.07 -126.423 47.419 Z " fill="#000000" transform="translate(1801.1728515625,358.01806640625)"/>
<path d="M0 0 C5.823 5.012 10.138 9.841 11.004 17.754 C11.518 25.569 9.459 30.758 4.316 36.629 C2.609 38.42 0.877 40.189 -0.871 41.941 C-1.424 42.496 -1.976 43.05 -2.545 43.621 C-7.371 48.455 -7.371 48.455 -9.734 50.768 C-12.667 53.655 -15.467 56.589 -18.145 59.715 C-23.457 65.867 -29.348 71.461 -35.133 77.164 C-39.695 81.686 -44.103 86.249 -48.28 91.128 C-50.798 93.998 -53.514 96.653 -56.246 99.316 C-62.678 105.593 -62.678 105.593 -63.265 109.693 C-62.737 114.043 -60.6 116.008 -57.566 118.912 C-57.002 119.475 -56.438 120.039 -55.856 120.619 C-53.988 122.478 -52.1 124.315 -50.211 126.152 C-48.904 127.446 -47.598 128.741 -46.293 130.038 C-42.851 133.451 -39.392 136.846 -35.929 140.237 C-31.746 144.339 -27.581 148.459 -23.416 152.579 C-20.17 155.79 -16.92 158.997 -13.66 162.193 C-7.823 167.926 -2.143 173.676 3.129 179.941 C4.7 181.703 6.283 183.454 7.867 185.203 C11.996 190.892 11.806 197.2 11.129 203.941 C9.315 211.038 3.959 215.846 -1.871 219.941 C-11.667 224.984 -21.846 226.399 -32.559 223.684 C-41.693 220.752 -48.085 215.583 -54.871 208.941 C-55.584 208.256 -56.297 207.57 -57.031 206.863 C-60.229 203.733 -63.271 200.525 -66.184 197.129 C-69.094 193.739 -72.193 190.577 -75.371 187.441 C-79.111 183.751 -82.653 179.966 -86.062 175.969 C-89.038 172.633 -92.257 169.544 -95.445 166.414 C-98.234 163.571 -100.75 160.572 -103.203 157.438 C-105.449 155.423 -106.857 154.987 -109.871 154.941 C-112.082 156.531 -112.082 156.531 -114.246 158.879 C-115.029 159.714 -115.811 160.55 -116.617 161.41 C-119.101 164.2 -121.562 167.007 -123.992 169.844 C-126.197 172.306 -128.52 174.619 -130.871 176.941 C-133.782 179.817 -136.595 182.7 -139.246 185.816 C-142.768 189.939 -146.605 193.706 -150.462 197.51 C-153.288 200.312 -155.989 203.149 -158.559 206.191 C-168.412 217.612 -179.562 224.014 -194.684 225.254 C-204.544 224.939 -213.703 221.895 -220.844 215.051 C-226.157 209.334 -228.44 204.212 -228.164 196.355 C-227.012 186.864 -221.955 181.416 -215.234 175.191 C-212.871 172.941 -212.871 172.941 -211.871 170.941 C-211.211 170.941 -210.551 170.941 -209.871 170.941 C-209.871 170.281 -209.871 169.621 -209.871 168.941 C-209.211 168.941 -208.551 168.941 -207.871 168.941 C-207.871 168.281 -207.871 167.621 -207.871 166.941 C-206.543 165.672 -206.543 165.672 -204.621 164.129 C-199.952 160.196 -195.945 155.773 -191.909 151.21 C-190.601 149.752 -189.24 148.342 -187.871 146.941 C-187.211 146.941 -186.551 146.941 -185.871 146.941 C-185.61 146.343 -185.349 145.745 -185.08 145.128 C-183.785 142.785 -182.59 141.632 -180.523 139.953 C-175.107 135.364 -170.094 130.386 -165.069 125.379 C-163.419 123.74 -161.76 122.111 -160.1 120.482 C-159.045 119.434 -157.991 118.385 -156.938 117.336 C-156.443 116.854 -155.948 116.371 -155.438 115.874 C-150.982 111.388 -150.982 111.388 -150.871 107.941 C-152.43 105.857 -153.925 104.145 -155.746 102.316 C-156.773 101.244 -157.799 100.171 -158.824 99.098 C-159.34 98.565 -159.857 98.033 -160.389 97.484 C-162.478 95.309 -164.488 93.067 -166.496 90.816 C-167.221 90.009 -167.945 89.202 -168.691 88.371 C-169.411 87.569 -170.13 86.767 -170.871 85.941 C-172.371 84.274 -173.871 82.608 -175.371 80.941 C-175.741 80.53 -175.741 80.53 -177.613 78.449 C-179.138 76.755 -180.664 75.063 -182.191 73.371 C-185.57 69.626 -188.94 65.876 -192.246 62.066 C-195.23 58.638 -198.293 55.286 -201.371 51.941 C-220.76 30.839 -220.76 30.839 -220.902 20.715 C-220.408 13.522 -218.014 7.626 -212.684 2.691 C-203.444 -4.617 -193.344 -5.925 -181.871 -5.059 C-177.938 -4.176 -174.483 -2.836 -170.871 -1.059 C-170.149 -0.704 -169.427 -0.35 -168.684 0.016 C-157.629 6.457 -149.081 18.275 -141.219 28.121 C-137.299 32.831 -133.07 37.251 -128.879 41.719 C-124.655 46.225 -120.634 50.903 -116.594 55.574 C-115.798 56.479 -115.003 57.384 -114.184 58.316 C-113.458 59.149 -112.732 59.982 -111.984 60.84 C-110.001 62.813 -108.436 63.888 -105.871 64.941 C-102.036 61.196 -98.241 57.446 -94.746 53.379 C-90.718 48.698 -86.486 44.216 -82.265 39.71 C-78.63 35.83 -75.018 31.931 -71.434 28.004 C-70.09 26.539 -68.745 25.073 -67.4 23.609 C-66.288 22.396 -65.178 21.181 -64.068 19.965 C-62.113 17.826 -60.149 15.696 -58.184 13.566 C-57.578 12.9 -56.972 12.234 -56.348 11.547 C-50.745 5.507 -44.793 0.451 -37.184 -2.871 C-36.293 -3.269 -35.402 -3.668 -34.484 -4.078 C-23.206 -8.31 -9.827 -7.046 0 0 Z " fill="#000000" transform="translate(1471.87109375,340.05859375)"/>
<path d="M0 0 C5.74 4.407 9.619 9.798 11 17 C11.1 19.488 11.148 21.949 11.147 24.437 C11.151 25.189 11.155 25.941 11.158 26.715 C11.169 29.236 11.173 31.757 11.177 34.278 C11.183 36.085 11.19 37.892 11.197 39.699 C11.218 45.635 11.228 51.571 11.238 57.508 C11.242 59.553 11.246 61.598 11.251 63.644 C11.27 73.255 11.284 82.865 11.292 92.476 C11.302 103.561 11.328 114.646 11.369 125.73 C11.399 134.304 11.414 142.877 11.417 151.451 C11.419 156.568 11.428 161.686 11.453 166.804 C11.477 171.622 11.481 176.44 11.471 181.258 C11.47 183.021 11.477 184.784 11.49 186.547 C11.567 196.938 11.601 206.404 4.688 214.812 C3.801 215.534 2.914 216.256 2 217 C1.76 217.215 1.76 217.215 0.547 218.301 C-6.427 224.039 -16.167 225.841 -25 225 C-34.892 223.228 -43.163 219.39 -49.027 211.004 C-51.653 205.593 -52.293 200.202 -52.261 194.271 C-52.263 193.898 -52.263 193.898 -52.272 192.008 C-52.283 189.522 -52.279 187.036 -52.275 184.549 C-52.279 182.76 -52.284 180.971 -52.29 179.181 C-52.304 174.332 -52.304 169.483 -52.302 164.634 C-52.301 160.581 -52.305 156.527 -52.31 152.474 C-52.321 142.91 -52.322 133.345 -52.316 123.78 C-52.31 113.924 -52.322 104.068 -52.343 94.212 C-52.361 85.74 -52.367 77.268 -52.364 68.795 C-52.362 63.74 -52.364 58.684 -52.378 53.628 C-52.391 48.873 -52.389 44.117 -52.376 39.361 C-52.374 37.62 -52.376 35.879 -52.385 34.138 C-52.434 22.945 -52.246 13.031 -44.945 3.859 C-32.989 -7.569 -13.787 -8.365 0 0 Z " fill="#000000" transform="translate(1568,340)"/>
</svg>
